<svg width="195" height="29" viewBox="0 0 195 29" fill="none" xmlns="http://www.w3.org/2000/svg">
<g clip-path="url(#clip0_1287_1877)">
<path d="M9.05458 7.84177L7.8916 12.1223L14.5482 7.8174L10.1947 24.0606L14.6162 24.0643L21.0476 0.0723572" fill="#3395FF"/>
<path d="M1.88982 17.2356L0.0585938 24.0643H9.12094L12.8292 10.1729L1.88982 17.2356ZM33.3691 11.2236C33.1476 12.0469 32.7208 12.6517 32.0843 13.0379C31.4493 13.4233 30.5581 13.6168 29.4076 13.6168H25.7526L27.0359 8.83195H30.691C31.8399 8.83195 32.6293 9.02393 33.0575 9.41529C33.4858 9.80664 33.5892 10.4047 33.3691 11.2317V11.2236ZM37.1534 11.1284C37.6186 9.40052 37.4266 8.0714 36.576 7.14102C35.7268 6.21803 34.2368 5.75284 32.1102 5.75284H23.9531L19.0428 24.0725H23.0057L24.9846 16.6885H27.5838C28.1671 16.6885 28.6264 16.7845 28.9617 16.9691C29.2976 17.1611 29.4948 17.4933 29.5553 17.9733L30.2627 24.0725H34.5085L33.8203 18.3868C33.68 17.1168 33.0989 16.371 32.0777 16.1495C33.3795 15.7729 34.4701 15.1452 35.3488 14.2739C36.2214 13.409 36.8447 12.3249 37.1534 11.1357V11.1284ZM46.7865 17.5155C46.4543 18.756 45.9448 19.6938 45.2559 20.3509C44.5662 21.0081 43.7421 21.333 42.7807 21.333C41.8016 21.333 41.1378 21.0155 40.7871 20.3731C40.4356 19.7307 40.4238 18.8003 40.7502 17.582C41.0765 16.3636 41.5971 15.4111 42.3133 14.7244C43.0296 14.0376 43.8669 13.6943 44.8283 13.6943C45.7882 13.6943 46.4454 14.0266 46.7777 14.686C47.1174 15.3483 47.1247 16.2957 46.7925 17.5288L46.7865 17.5155ZM48.5233 11.0324L48.0271 12.8857C47.8129 12.2212 47.3972 11.6895 46.7829 11.2908C46.167 10.8995 45.405 10.7001 44.496 10.7001C43.3811 10.7001 42.3104 10.9881 41.284 11.564C40.2576 12.14 39.3568 12.9522 38.5889 14.0007C37.8209 15.0493 37.2598 16.2381 36.8979 17.5746C36.5435 18.9184 36.4697 20.0925 36.6838 21.1115C36.9053 22.1379 37.3705 22.9206 38.0868 23.467C38.8104 24.0208 39.7334 24.294 40.8631 24.294C41.7609 24.2985 42.6485 24.1044 43.4623 23.7254C44.2669 23.3625 44.9826 22.8282 45.5593 22.16L45.0425 24.0917H48.8747L52.374 11.039H48.5343L48.5233 11.0324ZM66.1451 11.0324H55.0005L54.2215 13.9417H60.7061L52.1333 21.3478L51.4008 24.0798H62.905L63.684 21.1706H56.7357L65.4399 13.6537L66.1451 11.0324ZM75.9547 17.4933C75.6099 18.7782 75.0982 19.744 74.4225 20.3731C73.7469 21.0081 72.9287 21.3256 71.9681 21.3256C69.9596 21.3256 69.2995 20.0482 69.9848 17.4933C70.3244 16.2233 70.8383 15.2686 71.5251 14.6254C72.2118 13.9801 73.0439 13.6581 74.0223 13.6581C74.9822 13.6581 75.6305 13.9778 75.9643 14.6217C76.298 15.2641 76.2951 16.2218 75.9547 17.4919V17.4933ZM78.1979 11.5234C77.3156 10.974 76.1895 10.6994 74.8161 10.6994C73.4257 10.6994 72.1387 10.9726 70.9543 11.519C69.7748 12.062 68.7382 12.8725 67.9268 13.8863C67.0925 14.9126 66.4921 16.1162 66.1237 17.4897C65.7619 18.8579 65.7176 20.0593 65.9982 21.0879C66.2787 22.1142 66.8695 22.9043 67.7555 23.4507C68.649 24.0016 69.7861 24.2755 71.1817 24.2755C72.5551 24.2755 73.8325 23.9994 75.0066 23.45C76.1806 22.8977 77.1849 22.1135 78.0192 21.0797C78.8536 20.0504 79.4517 18.8498 79.8209 17.4764C80.1901 16.1029 80.2344 14.9038 79.9538 13.873C79.6733 12.8466 79.0899 12.0565 78.2112 11.5064L78.1979 11.5234ZM91.879 14.5191L92.861 10.9674C92.5287 10.7976 92.0931 10.709 91.5467 10.709C90.668 10.709 89.8262 10.926 89.014 11.3661C88.3154 11.7398 87.7218 12.267 87.2197 12.9271L87.7292 11.0147L86.6164 11.0191H83.8843L80.3622 24.0665H84.2484L86.0759 17.246C86.3417 16.2543 86.8202 15.4738 87.5106 14.92C88.1973 14.364 89.0538 14.0856 90.0876 14.0856C90.7226 14.0856 91.3133 14.2311 91.8745 14.5213L91.879 14.5191ZM102.692 17.5561C102.36 18.7745 101.858 19.7048 101.171 20.3472C100.484 20.9926 99.6572 21.3145 98.6973 21.3145C97.7374 21.3145 97.0802 20.9897 96.7332 20.3399C96.3787 19.6864 96.3714 18.7449 96.7036 17.5074C97.0359 16.2706 97.5454 15.3217 98.2469 14.6645C98.9484 14.0022 99.7754 13.6714 100.735 13.6714C101.68 13.6714 102.315 14.0111 102.655 14.6978C102.995 15.3845 103.002 16.337 102.676 17.5554L102.692 17.5561ZM105.393 11.5448C104.673 10.9689 103.754 10.6809 102.639 10.6809C101.662 10.6809 100.731 10.9024 99.8477 11.3499C98.9653 11.7966 98.2491 12.4058 97.699 13.1767L97.7123 13.0881L98.3643 11.0132H94.5689L93.6016 14.6239L93.5721 14.7495L89.5848 29.6237H93.4761L95.4845 22.1364C95.6839 22.8024 96.09 23.3252 96.7103 23.7033C97.3305 24.0798 98.0962 24.2667 99.0067 24.2667C100.136 24.2667 101.214 23.9934 102.237 23.447C103.264 22.8991 104.15 22.1105 104.903 21.0916C105.656 20.0726 106.215 18.8911 106.572 17.5546C106.933 16.2159 107.007 15.0219 106.8 13.9771C106.59 12.9308 106.124 12.1208 105.405 11.5478L105.393 11.5448ZM118.301 17.5029C117.969 18.7361 117.459 19.6812 116.773 20.331C116.086 20.9852 115.259 21.3109 114.299 21.3109C113.317 21.3109 112.652 20.9933 112.305 20.3509C111.951 19.7085 111.943 18.7782 112.268 17.5598C112.593 16.3414 113.112 15.3889 113.828 14.7022C114.544 14.0155 115.382 13.6729 116.344 13.6729C117.303 13.6729 117.953 14.0052 118.293 14.6623C118.633 15.3217 118.635 16.2691 118.304 17.5052L118.301 17.5029ZM120.036 11.0161L119.539 12.8695C119.325 12.2013 118.912 11.6696 118.299 11.2746C117.679 10.8803 116.918 10.6839 116.01 10.6839C114.895 10.6839 113.818 10.9718 112.79 11.5478C111.764 12.1237 110.863 12.9315 110.095 13.9771C109.327 15.0227 108.766 16.2144 108.404 17.5509C108.046 18.8926 107.976 20.0689 108.19 21.0923C108.406 22.1113 108.872 22.8984 109.593 23.4478C110.312 23.9942 111.24 24.2703 112.369 24.2703C113.278 24.2703 114.145 24.0813 114.969 23.7018C115.771 23.3372 116.485 22.8023 117.06 22.1342L116.544 24.0673H120.376L123.874 11.0198H120.042L120.036 11.0161ZM139.963 11.0206L139.966 11.0169H137.61C137.535 11.0169 137.468 11.0206 137.4 11.022H136.178L135.55 11.8933L135.395 12.1001L135.328 12.2035L130.363 19.1208L129.336 11.0206H125.269L127.329 23.3296L122.781 29.6282H126.835L127.935 28.0679C127.966 28.0221 127.994 27.9837 128.031 27.935L129.316 26.1112L129.353 26.0595L135.107 17.9002L139.958 11.0331L139.966 11.0287H139.963V11.0206Z" fill="#072654"/>
<path d="M155.56 18.216C155.56 19.064 155.419 19.8427 155.136 20.552C154.853 21.2613 154.456 21.872 153.944 22.384C153.432 22.896 152.816 23.2933 152.096 23.576C151.376 23.8587 150.576 24 149.696 24H145.288V12.432H149.696C150.576 12.432 151.376 12.576 152.096 12.864C152.816 13.1467 153.432 13.544 153.944 14.056C154.456 14.5627 154.853 15.1707 155.136 15.88C155.419 16.5893 155.56 17.368 155.56 18.216ZM153.352 18.216C153.352 17.5813 153.267 17.0133 153.096 16.512C152.931 16.0053 152.688 15.5787 152.368 15.232C152.053 14.88 151.669 14.6107 151.216 14.424C150.768 14.2373 150.261 14.144 149.696 14.144H147.448V22.288H149.696C150.261 22.288 150.768 22.1947 151.216 22.008C151.669 21.8213 152.053 21.5547 152.368 21.208C152.688 20.856 152.931 20.4293 153.096 19.928C153.267 19.4213 153.352 18.8507 153.352 18.216ZM160.671 15.664C161.279 15.664 161.831 15.7627 162.327 15.96C162.828 16.1573 163.255 16.4373 163.607 16.8C163.964 17.1627 164.238 17.6053 164.431 18.128C164.623 18.6507 164.719 19.2347 164.719 19.88C164.719 20.5307 164.623 21.1173 164.431 21.64C164.238 22.1627 163.964 22.608 163.607 22.976C163.255 23.344 162.828 23.6267 162.327 23.824C161.831 24.0213 161.279 24.12 160.671 24.12C160.057 24.12 159.5 24.0213 158.999 23.824C158.497 23.6267 158.068 23.344 157.711 22.976C157.359 22.608 157.084 22.1627 156.887 21.64C156.695 21.1173 156.599 20.5307 156.599 19.88C156.599 19.2347 156.695 18.6507 156.887 18.128C157.084 17.6053 157.359 17.1627 157.711 16.8C158.068 16.4373 158.497 16.1573 158.999 15.96C159.5 15.7627 160.057 15.664 160.671 15.664ZM160.671 22.6C161.353 22.6 161.857 22.3707 162.183 21.912C162.513 21.4533 162.679 20.7813 162.679 19.896C162.679 19.0107 162.513 18.336 162.183 17.872C161.857 17.408 161.353 17.176 160.671 17.176C159.977 17.176 159.463 17.4107 159.127 17.88C158.796 18.344 158.631 19.016 158.631 19.896C158.631 20.776 158.796 21.448 159.127 21.912C159.463 22.3707 159.977 22.6 160.671 22.6ZM172.106 17.528C172.047 17.6027 171.989 17.6613 171.93 17.704C171.877 17.7467 171.797 17.768 171.69 17.768C171.589 17.768 171.49 17.7387 171.394 17.68C171.298 17.616 171.183 17.5467 171.05 17.472C170.917 17.392 170.757 17.3227 170.57 17.264C170.389 17.2 170.162 17.168 169.89 17.168C169.543 17.168 169.239 17.232 168.978 17.36C168.717 17.4827 168.498 17.6613 168.322 17.896C168.151 18.1307 168.023 18.416 167.938 18.752C167.853 19.0827 167.81 19.4587 167.81 19.88C167.81 20.3173 167.855 20.7067 167.946 21.048C168.042 21.3893 168.178 21.6773 168.354 21.912C168.53 22.1413 168.743 22.3173 168.994 22.44C169.245 22.5573 169.527 22.616 169.842 22.616C170.157 22.616 170.41 22.5787 170.602 22.504C170.799 22.424 170.965 22.3387 171.098 22.248C171.231 22.152 171.346 22.0667 171.442 21.992C171.543 21.912 171.655 21.872 171.778 21.872C171.938 21.872 172.058 21.9333 172.138 22.056L172.706 22.776C172.487 23.032 172.25 23.248 171.994 23.424C171.738 23.5947 171.471 23.7333 171.194 23.84C170.922 23.9413 170.639 24.0133 170.346 24.056C170.058 24.0987 169.77 24.12 169.482 24.12C168.975 24.12 168.498 24.0267 168.05 23.84C167.602 23.648 167.21 23.3707 166.874 23.008C166.538 22.6453 166.271 22.2027 166.074 21.68C165.882 21.152 165.786 20.552 165.786 19.88C165.786 19.2773 165.871 18.72 166.042 18.208C166.218 17.6907 166.474 17.2453 166.81 16.872C167.146 16.4933 167.562 16.1973 168.058 15.984C168.554 15.7707 169.125 15.664 169.77 15.664C170.383 15.664 170.919 15.7627 171.378 15.96C171.842 16.1573 172.258 16.44 172.626 16.808L172.106 17.528ZM178.953 17.392C178.899 17.4773 178.843 17.5387 178.785 17.576C178.726 17.608 178.651 17.624 178.561 17.624C178.465 17.624 178.361 17.5973 178.249 17.544C178.142 17.4907 178.017 17.432 177.873 17.368C177.729 17.2987 177.563 17.2373 177.377 17.184C177.195 17.1307 176.979 17.104 176.729 17.104C176.339 17.104 176.033 17.1867 175.809 17.352C175.59 17.5173 175.481 17.7333 175.481 18C175.481 18.176 175.537 18.3253 175.649 18.448C175.766 18.5653 175.918 18.6693 176.105 18.76C176.297 18.8507 176.513 18.9333 176.753 19.008C176.993 19.0773 177.235 19.1547 177.481 19.24C177.731 19.3253 177.977 19.424 178.217 19.536C178.457 19.6427 178.67 19.7813 178.857 19.952C179.049 20.1173 179.201 20.3173 179.313 20.552C179.43 20.7867 179.489 21.0693 179.489 21.4C179.489 21.7947 179.417 22.16 179.273 22.496C179.134 22.8267 178.926 23.1147 178.649 23.36C178.371 23.6 178.027 23.7893 177.617 23.928C177.211 24.0613 176.742 24.128 176.209 24.128C175.926 24.128 175.649 24.1013 175.377 24.048C175.11 24 174.851 23.9307 174.601 23.84C174.355 23.7493 174.126 23.6427 173.913 23.52C173.705 23.3973 173.521 23.264 173.361 23.12L173.817 22.368C173.875 22.2773 173.945 22.208 174.025 22.16C174.105 22.112 174.206 22.088 174.329 22.088C174.451 22.088 174.566 22.1227 174.673 22.192C174.785 22.2613 174.913 22.336 175.057 22.416C175.201 22.496 175.369 22.5707 175.561 22.64C175.758 22.7093 176.006 22.744 176.305 22.744C176.539 22.744 176.739 22.7173 176.905 22.664C177.075 22.6053 177.214 22.5307 177.321 22.44C177.433 22.3493 177.513 22.2453 177.561 22.128C177.614 22.0053 177.641 21.88 177.641 21.752C177.641 21.56 177.582 21.4027 177.465 21.28C177.353 21.1573 177.201 21.0507 177.009 20.96C176.822 20.8693 176.606 20.7893 176.361 20.72C176.121 20.6453 175.873 20.5653 175.617 20.48C175.366 20.3947 175.118 20.296 174.873 20.184C174.633 20.0667 174.417 19.92 174.225 19.744C174.038 19.568 173.886 19.352 173.769 19.096C173.657 18.84 173.601 18.5307 173.601 18.168C173.601 17.832 173.667 17.512 173.801 17.208C173.934 16.904 174.129 16.64 174.385 16.416C174.646 16.1867 174.969 16.0053 175.353 15.872C175.742 15.7333 176.19 15.664 176.697 15.664C177.262 15.664 177.777 15.7573 178.241 15.944C178.705 16.1307 179.091 16.376 179.401 16.68L178.953 17.392Z" fill="#8895A8"/>
</g>
<defs>
<clipPath id="clip0_1287_1877">
<rect width="195" height="29" fill="white"/>
</clipPath>
</defs>
</svg>
